<svg width="90.000000" height="38.027191" viewBox="0 0 90 38.0272" fill="none" xmlns="http://www.w3.org/2000/svg" xmlns:xlink="http://www.w3.org/1999/xlink">
	<desc>
			Created with Pixso.
	</desc>
	<defs/>
	<path id="Vector" d="M3.42 3.79C2.26 3.79 1.13 3.79 0 3.79C0 9.53 0 15.28 0 21.03C3.35 21.03 6.7 21.03 10.06 21.03C10.06 19.92 10.06 18.86 10.06 17.75C7.84 17.75 5.64 17.75 3.42 17.75C3.42 13.09 3.42 8.45 3.42 3.79Z" fill="#FF4766" fill-opacity="1.000000" fill-rule="evenodd"/>
	<path id="Vector" d="M72.34 21C73.42 21 74.48 21 75.54 21C75.54 20.83 75.54 20.68 75.54 20.53C75.54 14.84 75.54 9.14 75.54 3.44C75.54 3.29 75.54 3.17 75.57 3.02C74.48 3.02 73.42 3.02 72.34 3.02C72.34 9.02 72.34 15.01 72.34 21Z" fill="#FF4766" fill-opacity="1.000000" fill-rule="evenodd"/>
	<path id="Vector" d="M39.04 9.11C39.04 8.99 39.04 8.87 39.04 8.72C37.98 8.72 36.97 8.72 35.91 8.72C35.91 9.19 35.91 9.66 35.91 10.15C35.83 10.1 35.81 10.1 35.78 10.08C34.33 8.4 32.48 8.05 30.43 8.55C27.64 9.21 25.79 11.63 25.74 14.57C25.67 18.34 28.7 21.22 32.48 20.95C33.74 20.86 34.82 20.34 35.66 19.4C35.73 19.33 35.73 19.2 35.78 19.1C35.83 19.15 35.86 19.18 35.91 19.23C35.91 19.72 35.93 20.19 35.91 20.68C35.86 21.67 35.46 22.51 34.57 23.03C32.9 23.99 30.55 23.45 29.49 21.87C29.47 21.84 29.44 21.79 29.39 21.74C28.51 22.26 27.62 22.76 26.68 23.27C27.2 24.21 27.87 24.9 28.78 25.37C30.63 26.36 32.58 26.51 34.6 26.01C36.1 25.67 37.34 24.9 38.2 23.6C38.87 22.56 39.09 21.42 39.09 20.22C39.04 16.56 39.04 12.84 39.04 9.11ZM32.38 18.04C30.38 18.04 28.93 16.61 28.93 14.66C28.93 12.72 30.41 11.31 32.4 11.31C34.4 11.31 35.88 12.74 35.91 14.66C35.91 16.64 34.43 18.04 32.38 18.04Z" fill="#FF4766" fill-opacity="1.000000" fill-rule="nonzero"/>
	<path id="Vector" d="M61.29 9.04C60.82 9.31 60.42 9.68 59.98 10.05C59.98 7.98 59.98 5.91 59.98 3.81C58.89 3.81 57.86 3.81 56.8 3.81C56.8 9.56 56.8 15.31 56.8 21.03C57.88 21.03 58.92 21.03 59.98 21.03C59.98 20.58 59.98 20.14 59.98 19.72C60.45 20.06 60.84 20.46 61.31 20.73C63.38 21.91 66.19 21.52 67.97 19.84C70.63 17.35 70.81 12.99 68.34 10.3C66.51 8.3 63.5 7.76 61.29 9.04ZM63.41 18.34C61.38 18.34 59.98 16.91 59.98 14.89C59.98 12.87 61.39 11.41 63.41 11.41C65.41 11.41 66.86 12.84 66.88 14.86C66.89 16.88 65.45 18.34 63.41 18.34Z" fill="#FF4766" fill-opacity="1.000000" fill-rule="nonzero"/>
	<path id="Vector" d="M17.51 8.37C13.83 8.37 10.95 11.21 10.92 14.86C10.92 18.51 13.81 21.37 17.46 21.4C21.16 21.4 24.07 18.54 24.07 14.89C24.09 11.24 21.18 8.37 17.51 8.37ZM17.6 18.27C15.61 18.32 14.18 16.93 14.13 14.91C14.08 12.99 15.48 11.51 17.43 11.46C19.36 11.41 20.84 12.84 20.88 14.81C20.94 16.74 19.5 18.22 17.6 18.27Z" fill="#FF4766" fill-opacity="1.000000" fill-rule="nonzero"/>
	<path id="Vector" d="M47.89 8.37C44.22 8.35 41.31 11.21 41.31 14.86C41.31 18.51 44.17 21.4 47.84 21.4C51.54 21.4 54.45 18.54 54.45 14.89C54.48 11.24 51.59 8.37 47.89 8.37ZM47.87 18.27C45.95 18.27 44.52 16.84 44.52 14.89C44.52 12.94 45.92 11.48 47.87 11.48C49.79 11.46 51.27 12.92 51.27 14.89C51.27 16.81 49.84 18.27 47.87 18.27Z" fill="#FF4766" fill-opacity="1.000000" fill-rule="nonzero"/>
	<path id="Vector" d="M86.94 8.69C86.67 8.69 86.59 8.79 86.52 9.01C86 10.64 85.46 12.25 84.91 13.85C84.57 14.86 84.25 15.85 83.88 16.93C83.8 16.76 83.75 16.66 83.71 16.56C82.72 14.05 81.73 11.51 80.75 8.99C80.7 8.87 80.57 8.69 80.47 8.69C79.39 8.67 78.28 8.67 77.12 8.67C77.19 8.84 77.24 8.97 77.29 9.09C78.9 12.82 80.47 16.54 82.08 20.26C82.13 20.39 82.2 20.56 82.18 20.68C81.78 21.79 81.14 22.68 79.86 22.88C79.56 22.93 79.29 22.95 78.97 22.98C78.97 23.96 78.97 24.9 78.97 25.91C80.5 25.99 81.91 25.69 83.09 24.73C84.2 23.84 84.89 22.66 85.36 21.38C86.91 17.23 88.42 13.09 89.95 8.92C89.97 8.85 89.97 8.77 89.99 8.67C88.98 8.69 87.95 8.72 86.94 8.69Z" fill="#FF4766" fill-opacity="1.000000" fill-rule="evenodd"/>
	<path id="Vector" d="M46.34 25.34L49.4 26.48C46.78 33.36 40.1 38.02 32.55 38.02C24.93 38.02 18.22 33.29 15.66 26.33L18.72 25.22C20.81 30.92 26.31 34.79 32.55 34.79C38.74 34.82 44.19 30.99 46.34 25.34Z" fill="#2877D4" fill-opacity="1.000000" fill-rule="nonzero"/>
	<path id="Vector" d="M12.57 5.46L10.16 3.19C14.1 -1.07 20.52 -1.07 24.46 3.19L22.04 5.46C19.41 2.6 15.19 2.6 12.57 5.46Z" fill="#2877D4" fill-opacity="1.000000" fill-rule="nonzero"/>
	<path id="Vector" d="M43.01 5.46L40.59 3.19C44.54 -1.07 50.95 -1.07 54.9 3.19L52.48 5.46C49.84 2.6 45.65 2.6 43.01 5.46Z" fill="#2877D4" fill-opacity="1.000000" fill-rule="nonzero"/>
</svg>
