<svg width="47.000000" height="42.000000" viewBox="0 0 47 42" fill="none" xmlns="http://www.w3.org/2000/svg" xmlns:xlink="http://www.w3.org/1999/xlink">
	<desc>
			Created with Pixso.
	</desc>
	<defs>
		<clipPath id="clip0_62">
			<rect id="Iconsax/Linear/shoppingcart" rx="0.000000" width="29.000000" height="29.000000" transform="translate(0.500000 12.500000)" fill="white" fill-opacity="0"/>
		</clipPath>
		<filter id="filter_0_64_dd" x="10.566650" y="0.000000" width="36.433350" height="41.000000" filterUnits="userSpaceOnUse" color-interpolation-filters="sRGB">
			<feFlood flood-opacity="0" result="BackgroundImageFix"/>
			<feColorMatrix in="SourceAlpha" type="matrix" values="0 0 0 0 0 0 0 0 0 0 0 0 0 0 0 0 0 0 127 0" result="hardAlpha"/>
			<feOffset dx="2" dy="2"/>
			<feGaussianBlur stdDeviation="3.33333"/>
			<feComposite in2="hardAlpha" operator="out" k2="-1" k3="1"/>
			<feColorMatrix type="matrix" values="0 0 0 0 1 0 0 0 0 0.27843 0 0 0 0 0.4 0 0 0 0.3 0"/>
			<feBlend mode="normal" in2="BackgroundImageFix" result="effect_dropShadow_1"/>
			<feBlend mode="normal" in="SourceGraphic" in2="effect_dropShadow_1" result="shape"/>
		</filter>
		<filter id="filter_0_66_dd" x="18.566650" y="10.999756" width="16.222412" height="18.000244" filterUnits="userSpaceOnUse" color-interpolation-filters="sRGB">
			<feFlood flood-opacity="0" result="BackgroundImageFix"/>
			<feColorMatrix in="SourceAlpha" type="matrix" values="0 0 0 0 0 0 0 0 0 0 0 0 0 0 0 0 0 0 127 0" result="hardAlpha"/>
			<feOffset dx="0" dy="4"/>
			<feGaussianBlur stdDeviation="1.33333"/>
			<feComposite in2="hardAlpha" operator="out" k2="-1" k3="1"/>
			<feColorMatrix type="matrix" values="0 0 0 0 0 0 0 0 0 0 0 0 0 0 0 0 0 0 0.25 0"/>
			<feBlend mode="normal" in2="BackgroundImageFix" result="effect_dropShadow_1"/>
			<feColorMatrix in="SourceAlpha" type="matrix" values="0 0 0 0 0 0 0 0 0 0 0 0 0 0 0 0 0 0 127 0" result="hardAlpha"/>
			<feOffset dx="0" dy="4"/>
			<feGaussianBlur stdDeviation="1.33333"/>
			<feComposite in2="hardAlpha" operator="out" k2="-1" k3="1"/>
			<feColorMatrix type="matrix" values="0 0 0 0 0 0 0 0 0 0 0 0 0 0 0 0 0 0 0.25 0"/>
			<feBlend mode="normal" in2="effect_dropShadow_1" result="effect_dropShadow_2"/>
			<feBlend mode="normal" in="SourceGraphic" in2="effect_dropShadow_2" result="shape"/>
		</filter>
	</defs>
	<rect id="Iconsax/Linear/shoppingcart" rx="0.000000" width="29.000000" height="29.000000" transform="translate(0.500000 12.500000)" fill="#FFFFFF" fill-opacity="0"/>
	<g clip-path="url(#clip0_62)">
		<path id="Vector" d="M2.5 14.5L4.67 14.5C6.02 14.5 7.08 15.66 6.97 17L5.93 29.45C5.89 29.93 5.95 30.41 6.11 30.87C6.27 31.33 6.52 31.75 6.84 32.1C7.17 32.46 7.57 32.75 8.01 32.94C8.46 33.13 8.94 33.23 9.42 33.23L22.73 33.23C24.53 33.23 26.11 31.76 26.25 29.97L26.92 20.6C27.07 18.52 25.5 16.83 23.41 16.83L7.27 16.83M21.41 39.04C21.71 38.74 21.87 38.35 21.87 37.93C21.87 37.52 21.71 37.12 21.41 36.83C21.12 36.53 20.72 36.37 20.31 36.37C19.89 36.37 19.5 36.53 19.2 36.83C18.91 37.12 18.75 37.52 18.75 37.93C18.75 38.35 18.91 38.74 19.2 39.04C19.5 39.33 19.89 39.5 20.31 39.5C20.72 39.5 21.12 39.33 21.41 39.04ZM11.41 39.04C11.71 38.74 11.87 38.35 11.87 37.93C11.87 37.52 11.71 37.12 11.41 36.83C11.12 36.53 10.72 36.37 10.31 36.37C9.89 36.37 9.5 36.53 9.2 36.83C8.91 37.12 8.75 37.52 8.75 37.93C8.75 38.35 8.91 38.74 9.2 39.04C9.5 39.33 9.89 39.5 10.31 39.5C10.72 39.5 11.12 39.33 11.41 39.04ZM11.25 22L26.25 22" stroke="#002959" stroke-opacity="1.000000" stroke-width="1.400000" stroke-linejoin="round" stroke-linecap="round"/>
	</g>
	<g filter="url(#filter_0_64_dd)">
		<circle id="Ellipse 31" cx="27.000000" cy="16.000000" r="8.000000" fill="#FF4766" fill-opacity="1.000000"/>
		<g filter="url(#filter_0_66_dd)">
			<path id="4" d="M27.38 18.51L23.56 18.51L23.56 17.36L26.96 11.99L28.76 11.99L28.76 17.32L29.78 17.32L29.78 18.51L28.76 18.51L28.76 20L27.38 20L27.38 18.51ZM25.05 17.32L27.39 17.32L27.39 13.64L27.33 13.64L25.05 17.26L25.05 17.32Z" fill="#FFFFFF" fill-opacity="1.000000" fill-rule="evenodd"/>
			<path id="4" d="M23.56 18.51L27.38 18.51L27.38 20L28.76 20L28.76 18.51L29.78 18.51L29.78 17.32L28.76 17.32L28.76 11.99L26.96 11.99L23.56 17.36L23.56 18.51ZM27.39 17.32L25.05 17.32L25.05 17.26L27.33 13.64L27.39 13.64L27.39 17.32Z" stroke="#000000" stroke-opacity="1.000000" stroke-width="1.000000"/>
			<path id="4" d="M23.56 18.51L27.38 18.51L27.38 20L28.76 20L28.76 18.51L29.78 18.51L29.78 17.32L28.76 17.32L28.76 11.99L26.96 11.99L23.56 17.36L23.56 18.51ZM27.39 17.32L25.05 17.32L25.05 17.26L27.33 13.64L27.39 13.64L27.39 17.32Z" stroke="#000000" stroke-opacity="0.200000" stroke-width="1.000000"/>
		</g>
	</g>
</svg>
