<svg width="24.000000" height="24.000000" viewBox="0 0 24 24" fill="none" xmlns="http://www.w3.org/2000/svg" xmlns:xlink="http://www.w3.org/1999/xlink">
	<desc>
			Created with Pixso.
	</desc>
	<defs>
		<clipPath id="clip0_44">
			<rect id="Iconsax/Linear/usersquare" rx="0.000000" width="23.000000" height="23.000000" transform="translate(0.500000 0.500000)" fill="white" fill-opacity="0"/>
		</clipPath>
	</defs>
	<rect id="Iconsax/Linear/usersquare" rx="0.000000" width="23.000000" height="23.000000" transform="translate(0.500000 0.500000)" fill="#FFFFFF" fill-opacity="0"/>
	<g clip-path="url(#clip0_44)">
		<path id="Vector" d="M15 22L9 22C7.77 22 6.73 21.88 5.85 21.62C6.07 19.02 8.75 16.96 12 16.96C15.25 16.96 17.92 19.02 18.14 21.62C17.26 21.88 16.21 22 15 22Z" stroke="#FFFFFF" stroke-opacity="1.000000" stroke-width="1.500000" stroke-linejoin="round"/>
		<path id="Vector" d="M9 2C4 2 2 4 2 9L2 15C2 18.78 3.14 20.85 5.85 21.62C6.08 19.02 8.75 16.96 12 16.96C15.25 16.96 17.92 19.02 18.14 21.62C20.86 20.85 22 18.78 22 15L22 9C22 4 20 2 15 2L9 2ZM8.41 10.58C8.41 8.6 10.02 7 12 7C13.98 7 15.58 8.6 15.58 10.58C15.58 12.56 13.98 14.17 12 14.17C10.02 14.17 8.41 12.56 8.41 10.58Z" stroke="#FFFFFF" stroke-opacity="1.000000" stroke-width="1.500000" stroke-linejoin="round"/>
		<path id="Vector" d="M12 14.17C10.02 14.17 8.42 12.56 8.42 10.58C8.42 8.6 10.02 7 12 7C13.98 7 15.58 8.6 15.58 10.58C15.58 12.56 13.98 14.17 12 14.17Z" stroke="#FFFFFF" stroke-opacity="1.000000" stroke-width="1.500000" stroke-linejoin="round"/>
	</g>
</svg>
